name ./resultDataOpenSim/trcMotMarkerGrf/sub09/grf-12-02.mot
datacolumns 19
datarows 15
range 0.96400000 1.02000000
endheader

                time	     ground_force_vx	     ground_force_vy	     ground_force_vz	     ground_force_px	     ground_force_py	     ground_force_pz	   l_ground_force_vx	   l_ground_force_vy	   l_ground_force_vz	   l_ground_force_px	   l_ground_force_py	   l_ground_force_pz	     ground_torque_x	     ground_torque_y	     ground_torque_z	   l_ground_torque_x	   l_ground_torque_y	   l_ground_torque_z	
          0.96400000	          0.00000000	          0.00000000	          0.00000000	          0.00000000	          0.00000000	          0.00000000	          3.96365128	        441.59630154	         12.74123445	          0.14596659	         -0.02500024	         -0.00665235	          0.00000000	          0.00000000	          0.00000000	          0.00000000	         -1.81967063	          0.00000000	
          0.96800000	          0.00000000	          0.00000000	          0.00000000	          0.00000000	          0.00000000	          0.00000000	          7.78595450	        446.06874844	         12.66499696	          0.14626122	         -0.02500061	         -0.00657199	          0.00000000	          0.00000000	          0.00000000	          0.00000000	         -2.12423726	          0.00000000	
          0.97200000	          0.00000000	          0.00000000	          0.00000000	          0.00000000	          0.00000000	          0.00000000	         11.99523806	        451.10924968	         12.38103093	          0.14652339	         -0.02500064	         -0.00648544	          0.00000000	          0.00000000	          0.00000000	          0.00000000	         -2.47171728	          0.00000000	
          0.97600000	          0.00000000	          0.00000000	          0.00000000	          0.00000000	          0.00000000	          0.00000000	         16.57173940	        456.80926706	         11.89563711	          0.14674810	         -0.02500100	         -0.00636462	          0.00000000	          0.00000000	          0.00000000	          0.00000000	         -2.85575477	          0.00000000	
          0.98000000	          0.00000000	          0.00000000	          0.00000000	          0.00000000	          0.00000000	          0.00000000	         21.48035194	        463.21762215	         11.22801801	          0.14693628	         -0.02500100	         -0.00620263	          0.00000000	          0.00000000	          0.00000000	          0.00000000	         -3.26668416	          0.00000000	
          0.98400000	          0.00000000	          0.00000000	          0.00000000	          0.00000000	          0.00000000	          0.00000000	         26.67507112	        470.36856422	         10.41157897	          0.14710636	         -0.02500100	         -0.00600639	          0.00000000	          0.00000000	          0.00000000	          0.00000000	         -3.69315811	          0.00000000	
          0.98800000	          0.00000000	          0.00000000	          0.00000000	          0.00000000	          0.00000000	          0.00000000	         32.10203893	        478.25983591	          9.49252613	          0.14731735	         -0.02500100	         -0.00576647	          0.00000000	          0.00000000	          0.00000000	          0.00000000	         -4.12379618	          0.00000000	
          0.99200000	          0.00000000	          0.00000000	          0.00000000	          0.00000000	          0.00000000	          0.00000000	         37.70877232	        486.81279565	          8.52304707	          0.14763957	         -0.02500100	         -0.00546739	          0.00000000	          0.00000000	          0.00000000	          0.00000000	         -4.54843036	          0.00000000	
          0.99600000	          0.00000000	          0.00000000	          0.00000000	          0.00000000	          0.00000000	          0.00000000	         43.45456731	        495.89789349	          7.55117667	          0.14812421	         -0.02500100	         -0.00510647	          0.00000000	          0.00000000	          0.00000000	          0.00000000	         -4.95876662	          0.00000000	
          1.00000000	          0.00000000	          0.00000000	          0.00000000	          0.00000000	          0.00000000	          0.00000000	         49.29916433	        505.42001272	          6.61051313	          0.14875762	         -0.02500100	         -0.00470675	          0.00000000	          0.00000000	          0.00000000	          0.00000000	         -5.34851516	          0.00000000	
          1.00400000	          0.00000000	          0.00000000	          0.00000000	          0.00000000	          0.00000000	          0.00000000	         55.17736814	        515.36060778	          5.71127440	          0.14947816	         -0.02500100	         -0.00429812	          0.00000000	          0.00000000	          0.00000000	          0.00000000	         -5.71313054	          0.00000000	
          1.00800000	          0.00000000	          0.00000000	          0.00000000	          0.00000000	          0.00000000	          0.00000000	         61.00503090	        525.76150249	          4.84712155	          0.15018514	         -0.02500100	         -0.00392379	          0.00000000	          0.00000000	          0.00000000	          0.00000000	         -6.04930196	          0.00000000	
          1.01200000	          0.00000000	          0.00000000	          0.00000000	          0.00000000	          0.00000000	          0.00000000	         66.70843315	        536.70830795	          4.02511352	          0.15079602	         -0.02500100	         -0.00360159	          0.00000000	          0.00000000	          0.00000000	          0.00000000	         -6.35439301	          0.00000000	
          1.01600000	          0.00000000	          0.00000000	          0.00000000	          0.00000000	          0.00000000	          0.00000000	         72.23348248	        548.28051381	          3.28328391	          0.15127780	         -0.02500100	         -0.00332606	          0.00000000	          0.00000000	          0.00000000	          0.00000000	         -6.62610618	          0.00000000	
          1.02000000	          0.00000000	          0.00000000	          0.00000000	          0.00000000	          0.00000000	          0.00000000	         77.53747315	        560.47241919	          2.67125477	          0.15165024	         -0.02500100	         -0.00308878	          0.00000000	          0.00000000	          0.00000000	          0.00000000	         -6.86254746	          0.00000000	
